<?xml version="1.0" standalone="no"?>
<!DOCTYPE svg PUBLIC "-//W3C//DTD SVG 1.1//EN" "http://www.w3.org/Graphics/SVG/1.1/DTD/svg11.dtd" >
<!--
2013-9-30: Created.
-->
<svg>
<metadata>
Created by iconfont
</metadata>
<defs>

<font id="iconfont" horiz-adv-x="1024" >
  <font-face
    font-family="iconfont"
    font-weight="500"
    font-stretch="normal"
    units-per-em="1024"
    ascent="896"
    descent="-128"
  />
    <missing-glyph />
    
    <glyph glyph-name="baidu" unicode="&#59003;" d="M397.888 340.096c2.24-41.792-22.464-77.056-55.168-78.784s-60.928 30.72-63.168 72.512 22.528 77.056 55.168 78.784c32.704 1.728 60.992-30.72 63.168-72.512v0zM507.648 460.096c2.176-41.792-22.464-77.056-55.168-78.784s-60.928 30.72-63.168 72.512c-2.176 41.792 22.528 77.056 55.168 78.784 32.704 1.728 60.928-30.72 63.168-72.512v0zM648.384 448.32c-4.288-41.6-34.176-72.64-66.752-69.248-32.576 3.392-55.424 39.872-51.136 81.472 4.288 41.6 34.24 72.64 66.752 69.248 32.576-3.392 55.424-39.872 51.136-81.472v0zM744 316.992c-4.288-41.6-34.176-72.64-66.752-69.248-32.512 3.392-55.424 39.872-51.136 81.472 4.288 41.6 34.176 72.64 66.752 69.248 32.576-3.392 55.488-39.872 51.136-81.472v0zM692.608 81.92c-29.056-69.76-135.168-33.536-135.168-33.536s-39.104 12.864-84.48 2.56c-45.376-10.368-84.544-6.464-84.544-6.464s-53.12-1.28-68.224 67.136c-15.104 68.544 52.992 106.048 58.048 112.448 4.992 6.528 40.384 31.040 63.040 69.76 22.784 38.784 90.944 69.76 138.88-6.464 35.392-51.712 96-99.52 96-99.52s45.44-36.16 16.448-105.92zM586.176 113.792h-39.68c0 0-10.112 2.112-10.112 10.688l-0 88.832h-24.896v-98.432c0 0 1.472-25.984 32.256-25.984h67.328v124.416h-24.896v-99.52zM461.696 213.312h-35.008c0 0-36.736-4.224-49.6-46.72-4.48-28.352 3.968-46.208 5.44-49.792 1.536-3.52 13.376-27.904 43.136-27.904h60.928v165.12l-24.896 0.512v-41.216zM461.696 113.792h-26.624c0 0-19.328 1.92-25.28 24.64-3.008 10.112 0.448 22.656 2.048 27.2 1.472 4.544 7.936 22.848 21.312 22.848h28.608v-74.688l-0.064 0z"  horiz-adv-x="1024" />

    
    <glyph glyph-name="iconmianyunfei" unicode="&#58884;" d="M785.869484 744.936605 238.130516 744.936605c-96.892771 0-175.741583-73.90522-175.741583-164.780951l0-569.71447c0-90.820472 78.848813-164.724669 175.741583-164.724669l547.738969 0c96.947006 0 175.739537 73.90522 175.739537 164.780951L961.609021 580.155654C961.610044 671.031385 882.817514 744.936605 785.869484 744.936605L785.869484 744.936605zM898.720715 10.496443c0-56.199976-50.578955-101.891621-112.850208-101.891621L238.130516-91.395178c-62.2119 0-112.851231 45.690622-112.851231 101.891621L125.279285 580.155654c0 56.199976 50.639331 101.891621 112.851231 101.891621l547.738969 0c62.215994 0 112.850208-45.690622 112.850208-101.891621L898.719692 10.496443 898.720715 10.496443zM182.285626 506.695572l0-360.997867 34.988886 0c10.290367 36.225039 43.221384 62.568011 82.739423 62.568011 39.515992 0 72.443939-26.753317 82.735329-62.568011l207.459982 0L590.209246 538.392482 213.982536 538.392482C196.694801 538.392482 182.285626 523.984331 182.285626 506.695572L182.285626 506.695572zM684.473143 475.413102l-46.925752 0 0-329.715397 18.934235 0c10.29139 36.225039 43.633776 62.568011 83.147722 62.568011 39.515992 0 72.859401-26.753317 83.150792-62.568011l18.934235 0L841.714374 318.584264C841.714374 405.026008 771.326257 475.413102 684.473143 475.413102L684.473143 475.413102zM300.012911 161.752356c-30.462802 0-54.747905-24.696472-54.747905-54.744835 0-30.462802 24.696472-54.747905 54.747905-54.747905 30.458709 0 54.743812 24.696472 54.743812 54.747905C355.169115 137.055884 330.47162 161.752356 300.012911 161.752356L300.012911 161.752356zM739.629347 161.752356c-30.459732 0-54.744835-24.696472-54.744835-54.744835 0-30.462802 24.696472-54.747905 54.744835-54.747905 30.462802 0 54.747905 24.696472 54.747905 54.747905C794.377252 137.055884 769.68078 161.752356 739.629347 161.752356L739.629347 161.752356zM739.629347 161.752356M794.377252 287.298723 684.473143 287.298723 684.473143 412.846114l15.642259 0c51.864228 0 94.26185-41.98523 94.26185-94.26185L794.377252 287.298723 794.377252 287.298723zM307.104423 367.372433c-11.481496 1.12973-17.799388 5.725398-18.928095 13.764492 0 10.32209 6.290263 15.485693 18.928095 15.485693l41.293475 0-30.697139 48.197722c0 1.12973-0.592494 2.286066-1.721201 3.442402-2.310625 4.569062-4.031826 9.16473-5.161556 13.764492 1.12973 9.16473 6.290263 14.329357 15.485693 15.482623 9.1678 0 16.049534-4.031826 20.646226-12.043291l39.298028-58.518788 39.848567 59.5994c4.569062 8.012488 11.450796 12.044314 20.646226 12.044314 9.16473-1.157359 14.326287-6.317892 15.482623-15.485693 0-2.310625-1.719154-6.881734-5.161556-13.764492-1.156336-1.156336-1.721201-2.310625-1.721201-3.440355l-31.243585-49.27731 41.293475 0c12.608156 0 18.926048-5.163603 18.926048-15.485693-1.153266-8.039093-7.471159-12.637832-18.926048-13.767562l-60.22157 0 0-30.968315 60.22157 0c12.608156 0 18.926048-5.161556 18.926048-15.485693-1.153266-8.03807-7.471159-12.634762-18.926048-13.763468l-60.22157 0 0-51.145867c0-11.478426-6.317892-17.206894-18.925025-17.206894-12.635785 0-18.926048 5.728468-18.926048 17.206894l0 51.145867-60.22157 0c-11.478426 1.12973-17.799388 5.725398-18.928095 13.763468 0 10.32516 6.293333 15.485693 18.928095 15.485693l60.22157 0 0 30.968315-60.22157 0L307.104423 367.372433z"  horiz-adv-x="1024" />

    
    <glyph glyph-name="lianxiren" unicode="&#58908;" d="M512 827.808922c-245.204631 0-443.808922-198.60429-443.808922-443.808922s198.60429-443.808922 443.808922-443.808922 443.808922 198.60429 443.808922 443.808922S757.203608 827.808922 512 827.808922zM512 694.666552c73.449849 0 133.142369-59.69252 133.142369-133.142369 0-73.671906-59.69252-133.142369-133.142369-133.142369s-133.142369 59.470463-133.142369 133.142369C378.857631 634.974032 438.549128 694.666552 512 694.666552zM512 64.458313c-111.174032 0-208.81177 56.80782-266.284739 142.906757 1.109264 88.096431 177.745217 136.693242 266.284739 136.693242s264.953418-48.596811 266.284739-136.693242C720.81177 121.26511 623.174032 64.458313 512 64.458313z"  horiz-adv-x="1024" />

    
    <glyph glyph-name="icon4" unicode="&#58883;" d="M969.46085 706.654584c-6.28617 9.272177-16.779152 14.849196-27.998681 14.849196l-502.975463 0c-18.661012 0-33.790594-15.113209-33.790594-33.790594s15.129582-33.790594 33.790594-33.790594l453.000258 0-114.288976-284.642852-430.924473 0L297.139467 704.607972c-1.435699 9.899464-7.193843 18.643616-15.706727 23.89113L131.998313 820.531168c-15.905248 9.800203-36.710087 4.817726-46.49494-11.054777-9.783831-15.905248-4.834098-36.693714 11.054777-46.49494l136.00251-83.749426 51.081399-348.626096c2.425236-16.598027 16.664541-28.906353 33.42732-28.906353l44.976354 0 6.418176-77.875648c0.725524-8.777921 8.051373-15.509229 16.845667-15.509229l43.243897 0c-21.168112-16.152888-35.07689-41.379433-35.07689-70.021773 0-48.738028 39.646975-88.402399 88.386026-88.402399s88.386026 39.663348 88.386026 88.402399c0 28.64234-13.900591 53.869908-35.07689 70.021773L651.325186 208.314699c-21.168112-16.152888-35.07689-41.379433-35.07689-70.021773 0-48.738028 39.646975-88.402399 88.386026-88.402399s88.386026 39.663348 88.386026 88.402399c0 28.64234-13.900591 53.869908-35.07689 70.021773l21.530362 0c9.338692 0 16.894785 7.557116 16.894785 16.894785s-7.556093 16.894785-16.894785 16.894785L400.867924 242.104269l-4.900613 59.595306 404.080082 0c13.793144 0 26.217105 8.381901 31.365358 21.184485l141.413753 352.223017C977.00057 685.535591 975.730647 697.348638 969.46085 706.654584zM481.862609 83.68112c-30.110785 0-54.595432 24.484647-54.595432 54.611805 0 30.094412 24.484647 54.579059 54.595432 54.579059s54.595432-24.484647 54.595432-54.579059C536.458041 108.165768 511.973394 83.68112 481.862609 83.68112zM704.633299 83.68112c-30.110785 0-54.595432 24.484647-54.595432 54.611805 0 30.094412 24.484647 54.579059 54.595432 54.579059s54.595432-24.484647 54.595432-54.579059C759.228731 108.165768 734.744084 83.68112 704.633299 83.68112z"  horiz-adv-x="1024" />

    
    <glyph glyph-name="weixin" unicode="&#59018;" d="M611.664896 470.48192c6.472704 0 12.858368-0.44032 19.191808-1.125376C613.617664 546.049024 527.742976 603.02336 429.73184 603.02336 320.161792 603.02336 230.4 531.694592 230.4 441.141248c0-52.278272 29.868032-95.197184 79.770624-128.495616l-19.929088-57.238528 69.692416 33.368064c24.925184-4.713472 44.942336-9.550848 69.814272-9.550848 6.26176 0 12.453888 0.299008 18.6112 0.755712-3.905536 12.71808-6.157312 26.05056-6.157312 39.876608C442.202112 403.006464 516.996096 470.48192 611.664896 470.48192L611.664896 470.48192zM504.48896 522.09152c15.003648 0 24.942592-9.427968 24.942592-23.763968 0-14.265344-9.938944-23.817216-24.942592-23.817216-14.934016 0-29.938688 9.56928-29.938688 23.817216C474.568704 512.662528 489.554944 522.09152 504.48896 522.09152L504.48896 522.09152zM364.981248 474.509312c-14.934016 0-30.025728 9.56928-30.025728 23.817216 0 14.318592 15.074304 23.763968 30.025728 23.763968 14.934016 0 24.890368-9.427968 24.890368-23.763968C389.87264 484.078592 379.933696 474.509312 364.981248 474.509312L364.981248 474.509312zM793.6 322.144256c0 76.077056-79.75424 138.11712-169.322496 138.11712-94.845952 0-169.53344-62.022656-169.53344-138.118144 0-76.234752 74.704896-138.134528 169.53344-138.134528 19.841024 0 39.876608 4.785152 59.80672 9.550848l54.670336-28.582912-14.987264 47.563776C763.802624 241.212416 793.6 279.22432 793.6 322.144256L793.6 322.144256zM569.326592 345.961472c-9.920512 0-19.94752 9.427968-19.94752 19.049472 0 9.481216 10.008576 19.032064 19.94752 19.032064 15.074304 0 24.96-9.550848 24.96-19.032064C594.269184 355.38944 584.400896 345.961472 569.326592 345.961472L569.326592 345.961472zM678.965248 345.961472c-9.849856 0-19.806208 9.427968-19.806208 19.049472 0 9.481216 9.938944 19.032064 19.806208 19.032064 14.934016 0 24.96-9.550848 24.96-19.032064C703.908864 355.38944 693.899264 345.961472 678.965248 345.961472L678.965248 345.961472z"  horiz-adv-x="1024" />

    
    <glyph glyph-name="zuoyoujiantou-copy1" unicode="&#58625;" d="M246.945 387.865c0 6.37 2.446 11.981 7.341 16.857l341.914 341.932c4.895 4.895 10.525 7.321 16.894 7.321s11.981-2.427 16.875-7.321l36.682-36.7c4.895-4.895 7.34-10.506 7.34-16.875 0-6.351-2.446-11.981-7.34-16.875l-288.358-288.358 288.359-288.34c4.895-4.895 7.34-10.506 7.34-16.875s-2.446-11.999-7.341-16.894l-36.681-36.681c-4.895-4.895-10.506-7.34-16.875-7.34s-11.999 2.446-16.894 7.341l-341.914 341.915c-4.893 4.893-7.341 10.525-7.341 16.894z"  horiz-adv-x="1024" />

    
    <glyph glyph-name="huidaodingbu" unicode="&#58942;" d="M1009.094469 839.113002H14.218841c-7.847069 0-14.213238 6.340636-14.213238 14.22175V881.778251c0 7.847069 6.366169 14.221749 14.213238 14.221749h994.875628c7.847069 0 14.213238-6.37468 14.213238-14.221749v-28.443499a14.213238 14.213238 0 0 0-14.213238-14.22175zM473.485173 698.912597a28.120084 28.120084 0 0 0 9.753516 6.315103v5.889558c0 7.847069 6.366169 14.221749 14.213239 14.221749h28.426477c7.847069 0 14.213238-6.37468 14.213238-14.221749v-5.889558c3.549054-1.395791 6.876824-3.438412 9.753516-6.315103l447.070182-447.376575a28.511586 28.511586 0 0 0 0-40.248147 28.417966 28.417966 0 0 0-40.18857 0L540.083132 628.195352v-741.973603c0-7.847069-6.366169-14.221749-14.213238-14.221749h-28.426477c-7.847069 0-14.213238 6.37468-14.213239 14.221749V628.195352L66.603562 211.287875a28.426477 28.426477 0 0 0-40.197081 0 28.460521 28.460521 0 0 0 0 40.248147l447.078692 447.376575z"  horiz-adv-x="1025" />

    
    <glyph glyph-name="tianwuliyou" unicode="&#58638;" d="M667.8 605.8c-9.4 0-15.6-6.2-15.6-15.6s6.2-15.6 15.6-15.6c28.1 0 49.9-21.8 49.9-49.9v-31.2H306.1v31.2c0 28.1 21.8 49.9 49.9 49.9 9.4 0 15.6 6.2 15.6 15.6s-6.2 15.6-15.6 15.6c-43.7 0-81.1-34.3-81.1-81.1V216c3.1-46.8 37.4-81.1 81.1-81.1h311.9c43.7 0 81.1 34.3 81.1 81.1V524.7c-3.2 43.7-37.5 81.1-81.2 81.1z m0-442.8H356c-28.1 0-49.9 21.8-49.9 49.9V462.4h411.7v-249.5c-0.1-25-21.9-49.9-50-49.9zM409 552.8c9.4 0 15.6 6.2 15.6 15.6v49.9c0 9.4-6.2 15.6-15.6 15.6s-15.6-6.2-15.6-15.6v-49.9c0-9.4 6.2-15.6 15.6-15.6z m96.7 0c9.4 0 15.6 6.2 15.6 15.6v49.9c-3.1 9.4-9.4 15.6-15.6 15.6-9.4 0-15.6-6.2-15.6-15.6v-49.9c0-9.4 6.2-15.6 15.6-15.6z m93.5 0c9.4 0 15.6 6.2 15.6 15.6v49.9c0 9.4-6.2 15.6-15.6 15.6s-15.6-6.2-15.6-15.6v-49.9c3.1-9.4 9.4-15.6 15.6-15.6zM452.6 400c0-6.2 6.2-12.5 12.5-12.5h81.1c-6.2-15.6-15.6-31.2-21.8-43.7-6.2-15.6-12.5-28.1-18.7-43.7-6.2-15.6-9.4-28.1-15.6-43.7-3.1-6.2-3.1-15.6-6.2-21.8-3.1-9.4 6.2-18.7 15.6-18.7s15.6 6.2 15.6 12.5c3.1 12.5 6.2 21.8 9.4 34.3 3.1 15.6 9.4 31.2 15.6 43.7 6.2 15.6 12.5 31.2 21.8 46.8 6.2 15.6 15.6 31.2 21.8 43.7v15.6H468.2c-9.3 0-15.6-6.3-15.6-12.5zM511.9-59.7c-59.9 0-118.1 11.7-172.9 34.9-52.9 22.4-100.4 54.4-141.2 95.2s-72.8 88.3-95.2 141.2c-23.2 54.8-34.9 112.9-34.9 172.9s11.7 118.1 34.9 172.9c22.4 52.9 54.4 100.4 95.2 141.2s88.3 72.8 141.2 95.2C393.8 817 451.9 828.7 511.9 828.7S630 816.8 684.8 793.6c52.9-22.4 100.4-54.4 141.2-95.2s72.8-88.3 95.2-141.2c23.2-54.8 34.9-112.9 34.9-172.9s-11.7-118.1-34.9-172.9C898.8 158.5 866.8 111 826 70.2s-88.3-72.8-141.2-95.2c-54.8-23-113-34.7-172.9-34.7z m0 863.2c-231.1 0-419.1-188-419.1-419.1 0-231.1 188-419.1 419.1-419.1 231.1 0 419.1 188 419.1 419.1 0 231.1-188 419.1-419.1 419.1z"  horiz-adv-x="1024" />

    
    <glyph glyph-name="didian" unicode="&#58639;" d="M970.666667-23.46666700000003l-153.6 264.533333c-4.266667 6.4-10.666667 10.666667-19.2 10.666667l-87.466667 0c-12.8 0-21.333333-10.666667-21.333333-21.333333 0-12.8 10.666667-21.333333 21.333333-21.333333l76.8 0 128-219.733333L132.266667-10.666666999999961l128 219.733333 76.8 0c12.8 0 21.333333 10.666667 21.333333 21.333333 0 12.8-10.666667 21.333333-21.333333 21.333333l-87.466667 0c-8.533333 0-14.933333-4.266667-19.2-10.666667L74.666667-23.46666700000003c-4.266667-6.4-4.266667-14.933333 0-21.333333 4.266667-6.4 10.666667-10.666667 19.2-10.666667l859.733333 0c8.533333 0 14.933333 4.266667 19.2 10.666667C974.933333-38.39999999999998 974.933333-29.866667000000007 970.666667-23.46666700000003zM512 448c70.4 0 128 57.6 128 128s-57.6 128-128 128-128-57.6-128-128S441.6 448 512 448zM512 661.333333c46.933333 0 85.333333-38.4 85.333333-85.333333s-38.4-85.333333-85.333333-85.333333-85.333333 38.4-85.333333 85.333333S465.066667 661.333333 512 661.333333zM283.733333 418.133333l209.066667-302.933333c4.266667-6.4 10.666667-8.533333 17.066667-8.533333 0 0 0 0 0 0 6.4 0 12.8 4.266667 17.066667 8.533333l211.2 302.933333c0 0 0 0 0 2.133333 32 46.933333 49.066667 100.266667 49.066667 157.866667 0 153.6-123.733333 277.333333-277.333333 277.333333S234.666667 729.6 234.666667 576C234.666667 518.4 251.733333 465.066667 283.733333 418.133333 283.733333 418.133333 283.733333 418.133333 283.733333 418.133333zM512 810.666667c130.133333 0 234.666667-104.533333 234.666667-234.666667 0-57.6-21.333333-113.066667-59.733333-155.733333l2.133333 0-179.2-256-174.933333 256 2.133333 2.133333C298.666667 462.933333 277.333333 518.4 277.333333 576 277.333333 706.133333 381.866667 810.666667 512 810.666667z"  horiz-adv-x="1024" />

    
    <glyph glyph-name="zuoyou" unicode="&#58628;" d="M704.5290703773499 366.00082182884205l-343.0438846349716-343.0438846349716c-5.490133166313172-5.490133166313172-13.073918223381042-8.885166049003601-21.451422572135925-8.885166049003601-16.754284501075748 0-30.336588621139526 13.582304120063782-30.336588621139526 30.336588621139526 0 8.377504348754881 3.395757079124451 15.96128940582275 8.885166049003601 21.451422572135925l325.052672624588 325.052672624588-314.6155536174775 314.6734893321991c-5.007818341255188 5.179452896118164-8.093619346618654 12.244713306427002-8.093619346618654 20.02982497215271 0 15.923631191253662 12.908801436424255 28.832432627677925 28.832432627677925 28.832432627677925 7.785835862159729 0 14.850372076034546-3.0858010053634644 20.037791132926944-8.100861310958862l326.19835138320923-326.19835138320923c3.9446979761123657-4.0149450302124015 6.707507371902467-9.203088283538818 7.718485593795776-14.993038773536682-0.6257057189941405 4.035946726799011 0.2389848232269287 4.555919766426087 0.8161693811416627 3.691229224205018 5.473476648330689-5.486512184143066 8.858370780944824-13.058710098266603 8.858370780944824-21.422454714775082 0-8.363020420074463-3.384894132614136-15.935942530632019-8.859094977378845-21.422454714775082z"  horiz-adv-x="1024" />

    
    <glyph glyph-name="xiaoxizhuanhuan" unicode="&#58891;" d="M512 896C226.742857 896 0 669.257143 0 384c0-182.857143 95.085714-343.771429 241.371429-431.542857 36.571429-21.942857-146.285714-51.2-146.285715-51.2s168.228571-43.885714 416.914286-21.942857c285.257143 21.942857 512 226.742857 512 512C1024 669.257143 797.257143 896 512 896zM197.485714 318.171429c-36.571429 0-65.828571 29.257143-65.828571 65.828571s29.257143 65.828571 65.828571 65.828571 65.828571-29.257143 65.828572-65.828571-29.257143-65.828571-65.828572-65.828571z m307.2 0c-36.571429 0-65.828571 29.257143-65.828571 65.828571s29.257143 65.828571 65.828571 65.828571 65.828571-29.257143 65.828572-65.828571c-7.314286-36.571429-36.571429-65.828571-65.828572-65.828571z m321.828572 0c-36.571429 0-65.828571 29.257143-65.828572 65.828571s29.257143 65.828571 65.828572 65.828571 65.828571-29.257143 65.828571-65.828571-29.257143-65.828571-65.828571-65.828571z"  horiz-adv-x="1024" />

    
    <glyph glyph-name="zizhu" unicode="&#58887;" d="M934.4 401.066667h-230.4v-34.133334h247.466667c12.8 0 34.133333-25.6 34.133333-51.2v-354.133333c0-29.866667-25.6-51.2-51.2-51.2H554.666667l-238.933334 311.466667c-8.533333 17.066667-21.333333 64 0 85.333333s51.2 25.6 76.8 4.266667l4.266667-4.266667c29.866667-25.6 64-46.933333 98.133333-68.266667V170.66666699999996h34.133334V614.4c0 38.4 29.866667 72.533333 72.533333 72.533333 38.4 0 72.533333-29.866667 72.533333-72.533333v-213.333333h34.133334v213.333333c0 59.733333-46.933333 106.666667-106.666667 106.666667s-106.666667-46.933333-106.666667-106.666667v-341.333333l-76.8 51.2-8.533333 8.533333c-38.4 34.133333-93.866667 29.866667-123.733333-8.533333-42.666667-42.666667-4.266667-123.733333-4.266667-123.733334l256-328.533333h396.8c46.933333 0 89.6 38.4 89.6 89.6v354.133333c0 46.933333-38.4 85.333333-89.6 85.333334zM571.733333 896h140.8v-34.133333h-140.8zM891.733333 533.333333l-25.6 25.6c-8.533333-8.533333-21.333333-17.066667-38.4-17.066666h-72.533333v-34.133334h72.533333c25.6 0 46.933333 8.533333 64 25.6zM362.666667 896h140.8v-34.133333H362.666667zM883.2 819.2l34.133333 8.533333c-8.533333 38.4-46.933333 68.266667-85.333333 68.266667h-46.933333v-34.133333h46.933333c21.333333 0 42.666667-17.066667 51.2-42.666667zM883.2 750.933333h34.133333v-140.8h-34.133333zM89.6 541.866667h140.8v-34.133334H89.6zM0 806.4V768h34.133333v38.4c0 25.6 21.333333 46.933333 46.933334 51.2L76.8 896C34.133333 887.466667 0 853.333333 0 806.4zM298.666667 541.866667h140.8v-34.133334H298.666667zM149.333333 896h140.8v-34.133333H149.333333zM34.133333 695.466667H0V597.333333c0-17.066667 4.266667-34.133333 12.8-46.933333l29.866667 17.066667C38.4 576 34.133333 584.5333330000001 34.133333 597.333333V695.466667z"  horiz-adv-x="1024" />

    
    <glyph glyph-name="huhuan" unicode="&#58921;" d="M512.8 844.8c254.4 0 460.8-206.4 460.8-460.8s-206.4-460.8-460.8-460.8S52 130.4 52 384c0 254.4 206.4 460.8 460.8 460.8m0 51.2C230.4 896 0.8 666.4 0.8 384s229.6-512 512-512 512 229.6 512 512-229.6 512-512 512z m0 0M240.8 452h544.8c11.2 0 17.6 13.6 8.8 22.4l-38.4 38.4-99.2 99.2c-8 8-22.4 2.4-22.4-8.8v-76.8c0-7.2-5.6-12.8-12.8-12.8H240.8c-7.2 0-12.8-5.6-12.8-12.8v-34.4c-0.8-8.8 5.6-14.4 12.8-14.4z m544-135.2H240c-11.2 0-17.6-13.6-8.8-22.4l38.4-38.4 99.2-99.2c8-8 22.4-2.4 22.4 8.8v77.6c0 7.2 5.6 12.8 12.8 12.8h380.8c7.2 0 12.8 5.6 12.8 12.8V304c0.8 7.2-5.6 12.8-12.8 12.8z m0 0"  horiz-adv-x="1024" />

    
    <glyph glyph-name="huhuan1" unicode="&#59077;" d="M512-42.666667c234.666667 0 426.666667 192 426.666667 426.666667S746.666667 810.666667 512 810.666667 85.333333 618.666667 85.333333 384s192-426.666667 426.666667-426.666667z m0-85.333333C230.4-128 0 102.4 0 384S230.4 896 512 896s512-230.4 512-512-230.4-512-512-512z m-110.933333 384H725.333333c25.6 0 42.666667 17.066667 42.666667 42.666667s-17.066667 42.666667-42.666667 42.666666H298.666667c-12.8 0-21.333333-4.266667-29.866667-12.8-17.066667-17.066667-17.066667-42.666667 0-59.733333l119.466667-119.466667c17.066667-17.066667 42.666667-17.066667 59.733333 0s17.066667 42.666667 0 59.733334L401.066667 256z m221.866666 256H298.666667c-25.6 0-42.666667-17.066667-42.666667-42.666667s17.066667-42.666667 42.666667-42.666666h426.666666c12.8 0 21.333333 4.266667 29.866667 12.8 17.066667 17.066667 17.066667 42.666667 0 59.733333l-119.466667 119.466667c-17.066667 17.066667-42.666667 17.066667-59.733333 0s-17.066667-42.666667 0-59.733334L622.933333 512z"  horiz-adv-x="1024" />

    
    <glyph glyph-name="shouyihuhuan" unicode="&#59030;" d="M512 896C229.376 896 0 666.624 0 384s229.376-512 512-512 512 229.376 512 512S794.624 896 512 896m0-972.8C258.048-76.8 51.2 130.048 51.2 384S258.048 844.8 512 844.8 972.8 637.952 972.8 384 765.952-76.8 512-76.8M860.16 384c0 12.288 0 26.624-2.048 38.912 0 4.096 0 6.144-2.048 10.24-4.096 8.192-12.288 12.288-20.48 12.288H561.152l100.352 143.36c6.144 10.24 2.048 22.528-8.192 26.624-8.192 4.096-18.432 2.048-24.576-4.096l-102.4-149.504-8.192-10.24-110.592 159.744c-6.144 10.24-18.432 12.288-28.672 6.144s-12.288-18.432-6.144-28.672l100.352-143.36h-59.392c-12.288 0-20.48-8.192-20.48-20.48s8.192-20.48 20.48-20.48h86.016v-34.816h40.96V404.48H819.2v-20.48c0-137.216-92.16-258.048-227.328-292.864l4.096 4.096c6.144 6.144 6.144 16.384 0 22.528s-16.384 6.144-22.528 0c-2.048 0-2.048-2.048-2.048-4.096L538.624 76.8c-2.048-4.096-4.096-8.192-4.096-12.288 0-4.096 2.048-8.192 6.144-12.288l38.912-32.768c8.192-4.096 18.432-2.048 22.528 4.096s4.096 14.336-2.048 20.48l-6.144 8.192c155.648 34.816 266.24 172.032 266.24 331.776zM624.64 369.664H219.136V384c0 141.312 98.304 264.192 237.568 292.864l-8.192-6.144c-6.144-6.144-4.096-18.432 2.048-22.528 6.144-6.144 18.432-4.096 22.528 2.048l34.816 45.056c6.144 4.096 6.144 10.24 4.096 16.384 0 2.048-2.048 4.096-4.096 6.144L464.896 752.64c-8.192 6.144-18.432 4.096-24.576-2.048-6.144-8.192-4.096-18.432 2.048-24.576l8.192-6.144C292.864 687.104 178.176 545.792 178.176 384c0-8.192 0-16.384 2.048-24.576v-10.24c0-12.288 8.192-20.48 20.48-20.48h425.984c12.288 0 20.48 8.192 20.48 20.48-2.048 12.288-10.24 20.48-22.528 20.48zM499.712 183.296c0-12.288 8.192-20.48 20.48-20.48s20.48 8.192 20.48 20.48v145.408h-40.96v-145.408z"  horiz-adv-x="1024" />

    
    <glyph glyph-name="weibo" unicode="&#58915;" d="M901.3 428.4c-3.8-11.7-14.3-19.9-26.5-20.9s-23.9 5.5-29.5 16.3c-3.6 7.1-4.4 15.4-1.9 23h-0.1c16.5 50.4 4.6 105.7-31.2 145.1-35.7 39.3-89.9 56.8-142.2 45.7-7.9-1.7-16.1-0.2-22.9 4.2-6.7 4.4-11.5 11.2-13.2 19-3.5 16.2 7 32.3 23.4 35.8 70.9 15 147.8-6.9 199.9-64.3 52.3-57.2 66.4-135.3 44.2-203.9zM690.8 541.2c-6.7-1.4-13.8-0.2-19.7 3.6-5.9 3.7-9.8 9.6-11.4 16.3-3 14 5.9 27.8 20.1 30.8 35.8 7.6 72.9-4.3 97.4-31.2 25.5-28 32.2-66 21.4-99.4-2.1-6.6-6.7-12-13-15.1-6.2-3.1-13.4-3.7-20-1.6-13.8 4.4-21.3 19.1-16.8 32.7h-0.1c5.5 16.9 1.6 35.4-10.4 48.6-11.9 13.2-30 19-47.5 15.3zM714 394c45.5-14 96.2-47.9 96.2-107.6 0-98.9-143.6-223.4-359.4-223.4-164.6 0-333 79.2-333 209.5 0 68.2 43.5 146.9 118.3 221.2 99.9 99.2 216.5 144.4 260.4 100.8 19.3-19.2 21.2-52.4 8.8-92.1-6.5-20 18.9-8.9 18.9-9 80.8 33.6 151.3 35.6 177-1 13.7-19.4 12.4-46.8-0.3-78.4-5.8-14.4 1.9-16.6 13.1-20zM451.2 109.7c131.3 12.9 231 92.7 222.5 178.5-8.5 85.5-121.9 144.6-253.3 131.7-131.4-12.9-231-92.8-222.5-178.4 8.5-85.7 121.9-144.6 253.3-131.8zM464.3 353.9c64.7-16.6 97.7-77.2 71.3-136-26.8-60.3-103.9-92.3-169.3-71.3-63.2 20.2-89.9 82.2-62.2 138 27.1 54.5 97.7 85.4 160.2 69.3zM416.6 211.4c12.5 20.3 5.9 43.6-14.6 52.3-20.3 8.4-46.7-0.3-59.2-19.8-12.7-19.6-6.7-43 13.5-52.1 20.4-9.3 47.6-0.4 60.3 19.6z"  horiz-adv-x="1024" />

    
    <glyph glyph-name="toutiao" unicode="&#59068;" d="M962.3 606.1H61.7C27.6 606.1 0 578.5 0 544.4v-320.8c0-34.1 27.6-61.7 61.7-61.7H838c25.9 0 49.1 16.2 58 40.6l124.3 320.8c14.6 40.2-15.2 82.8-58 82.8z m-471-137.4h2.1c3.5-0.7 5.7-0.7 6.4 0 12.7 2.8 27.2 13.8 43.5 32.9 7.8 5.7 15.5 6.4 23.3 2.1v-2.1c-1.4-7.1 6.7-11 24.4-11.7h43.5c30.4 0.7 49.1 0.3 56.2-1.1 12.7-2.8 16.3-9.2 10.6-19.1-5-5-10.6-9.5-17-13.8-4.2-2.8-7.4-5.3-9.5-7.4-6.4-5-12.7-6.4-19.1-4.2-2.1 0.7-2.1 4.6 0 11.7l-1.1 1.1c-2.8 3.5-5 5.3-6.4 5.3h-14.8c-18.4 0.7-31.1 1.1-38.2 1.1-21.9-0.7-37.8-2.1-47.7-4.2-5-1.4-11.7-5-20.1-10.6-7.1-5-12.7-8.5-17-10.6-11.3-5-20.5-1.8-27.6 9.5-6.3 11.9-3.5 18.9 8.5 21.1z m-134.6 14.8c1.4 18.4 7.8 26.5 19.1 24.4 11.3 0 15.5-8.5 12.7-25.4-3.5-46.7-9.5-75.6-18-86.9-2.1-5-5.3-7.4-9.5-7.4s-6.7 2.5-7.4 7.4c-0.8 27.5 0.2 56.8 3.1 87.9z m-114.6 9.6c6.4 8.5 14.8 11 25.4 7.4 20.5-7.1 37.1-15.2 49.8-24.4 10.6-9.9 13.1-18.7 7.4-26.5-5.7-7.1-13.1-8.5-22.3-4.2-1.4 0.7-3.5 1.8-6.4 3.2-14.8 9.2-29.7 17-44.5 23.3-9.7 3.5-12.9 10.6-9.4 21.2z m-24.3-61.5c4.9 9.2 13.4 12 25.4 8.5 17.7-6.4 35.3-15.2 53-26.5 13.4-9.2 16.6-19.1 9.5-29.7-5.7-5-13.4-4.6-23.3 1.1-3.5 2.1-9.5 5.3-18 9.5-17.7 9.2-31.1 15.9-40.3 20.1-6.3 4.9-8.5 10.6-6.3 17z m213.1-166.5c-6.4-7.1-14.8-6-25.4 3.2-1.4 1.4-4.6 4.2-9.5 8.5-9.2 7.8-16.6 14.5-22.3 20.1-9.2 7.1-10.6 14.5-4.2 22.3 6.4 4.2 13.4 5.3 21.2 3.2 19.8-14.1 33.2-25.1 40.3-32.9 5.5-7.1 5.5-15.2-0.1-24.4z m8.4 71c-2.8 0-9.9 0.3-21.2 1.1-14.8 0.7-25.4 1.1-31.8 1.1-15.6-1.4-30.7-7.1-45.6-17-28.3-28.3-57.6-48.1-88-59.4-10.6-4.2-19.8-1.8-27.6 7.4-9.2 10.6-10.3 18.4-3.2 23.3 4.9 2.8 9.5 3.5 13.8 2.1 3.5-2.1 7.4-2.8 11.7-2.1 25.4 8.5 44.2 19.1 56.2 31.8 2.8 5.7 1.8 9.5-3.2 11.7-15.6 0-42.1-1.1-79.5-3.2h-4.2c-10.6 0.7-16.3 6.4-17 17-0.7 8.5 6.4 12.4 21.2 11.7h71c28.3 0 47.3 4.9 57.3 14.8 7.1 7.1 12.4 7.1 15.9 0 9.9-8.5 24-12.4 42.4-11.7 10.6 0.7 20.5 1.1 29.7 1.1 10.6-0.7 15.9-6.4 15.9-17 0-9.1-4.6-13.4-13.8-12.7z m111.4-33.9c-7.8-12.7-19.8-24-36-33.9-10.6-4.9-18.4-4.6-23.3 1.1-8.5 11.3-9.9 18.7-4.2 22.3 3.5 3.5 7.4 4.2 11.7 2.1h3.2c2.8 1.4 9.5 6.4 20.1 14.8 4.2 3.5 7.4 6 9.5 7.4 8.5 6.4 15.5 7.1 21.2 2.1 3.4-3.5 2.7-8.8-2.2-15.9z m147.3-36h-1c-7.8-0.7-13.1 0-15.9 2.1-10.6 11.3-23.3 21.9-38.2 31.8-5 4.9-5.3 10.2-1.1 15.9 5.7 4.9 12.7 6 21.2 3.2 18.4-10.6 32.5-21.9 42.4-33.9 3.6-6.4 1.1-12.8-7.4-19.1z m-1 60.4h-62.6c-8.5-0.7-13.1-6.7-13.8-18v-23.3c-0.7-21.9-12.4-29.7-35-23.3-19.1 3.5-27.2 11.3-24.4 23.3 2.1 9.9 8.8 12.7 20.1 8.5h1.1c3.5-1.4 6-1.1 7.4 1.1 2.8 3.5 3.9 9.9 3.2 19.1-3.5 7.8-13.8 12-30.7 12.7-14.8 0.7-32.9 0-54.1-2.1-4.2-0.7-7.1-1.1-8.5-1.1-12.7-0.7-19.4 4.6-20.1 15.9 0.7 9.2 9.5 13.8 26.5 13.8 4.9 0 11.3-0.4 19.1-1.1 12.7-1.4 26.9-1.4 42.4 0 11.3 2.1 18.4 8.8 21.2 20.1 7.8 10.6 16.6 10.2 26.5-1.1 4.2-12.7 13.4-18.7 27.6-18h53c11.3 0 17.7-3.9 19.1-11.7 1.4-9.9-4.6-14.8-18-14.8z m8.5 37.1c-24.7 3.5-48.4 10.2-71 20.1-19.1 5.7-39.2 5.3-60.4-1.1-39.6-14.8-66.8-22.3-81.6-22.3-13.4-0.7-19.8 7.8-19.1 25.4 2.1 7.1 7.8 10.2 17 9.5 2.1-2.1 4.9-3.2 8.5-3.2 34.6 4.2 55.5 11 62.6 20.1 0 2.1-3.2 5.3-9.5 9.5-3.5 1.4-6 2.8-7.4 4.2-7.8 7.8-8.5 14.8-2.1 21.2 6.4 4.9 13.1 4.2 20.1-2.1 14.8-9.9 29-14.5 42.4-13.8 11.3 0.7 22.6 3.2 33.9 7.4 7.1 2.8 11.7 2.8 13.8 0 1.4-1.4 0.7-4.2-2.1-8.5-5.7-8.5-6-14.1-1.1-17 11.3-5.7 28.3-11 50.9-15.9 3.5 0 6.4 1.1 8.5 3.2 10.6-2.1 16.3-7.8 17-17-5.9-13.7-12.7-20.4-20.4-19.7z"  horiz-adv-x="1024" />

    
    <glyph glyph-name="right" unicode="&#58636;" d="M704.52907037 387.33415516l-343.04388463-343.04388464c-5.49013316-5.49013316-13.07391822-8.88516605-21.45142257-8.88516605-16.75428449 0-30.33658862 13.58230412-30.33658862 30.33658862 0 8.37750435 3.39575708 15.96128941 8.88516606 21.45142258l325.05267261 325.05267263-314.61555362 314.67348933c-5.00781834 5.1794529-8.09361935 12.2447133-8.09361934 20.02982496 0 15.92363119 12.90880145 28.83243262 28.83243262 28.83243263 7.78583586 0 14.85037207-3.085801 20.03779114-8.10086131l326.19835138-326.19835138c3.94469797-4.01494503 6.70750737-9.20308828 7.7184856-14.99303878-0.62570572 4.03594673 0.23898482 4.55591977 0.81616937 3.69122924 5.47347665-5.48651218 8.85837078-13.05871011 8.85837079-21.42245473 0-8.36302043-3.38489413-15.93594253-8.85909498-21.42245471z"  horiz-adv-x="1024" />

    
    <glyph glyph-name="erji" unicode="&#59464;" d="M564.244898 18.285714c-11.493878 0-20.897959 9.404082-20.897959 20.897959s9.404082 20.897959 20.897959 20.89796c124.342857 0 225.697959 101.355102 225.697959 225.697959 0 11.493878 9.404082 20.897959 20.897959 20.897959s20.897959-9.404082 20.89796-20.897959c0-147.330612-120.163265-267.493878-267.493878-267.493878zM830.693878 461.322449c-11.493878 0-20.897959 9.404082-20.89796 20.897959C809.795918 635.297959 676.04898 760.163265 512 760.163265S214.204082 635.297959 214.204082 482.220408c0-11.493878-9.404082-20.897959-20.89796-20.897959s-20.897959 9.404082-20.897959 20.897959C172.408163 658.808163 324.963265 801.959184 512 801.959184s339.591837-143.15102 339.591837-319.738776c0-11.493878-9.404082-20.897959-20.897959-20.897959zM198.530612 264.881633h-10.448979c-51.722449 0-94.040816 42.318367-94.040817 94.040816v50.155102c0 51.722449 42.318367 94.040816 94.040817 94.040816h10.448979c51.722449 0 94.040816-42.318367 94.040817-94.040816v-50.155102c0-51.722449-42.318367-94.040816-94.040817-94.040816z m-10.448979 196.440816c-28.734694 0-52.244898-23.510204-52.244898-52.244898v-50.155102c0-28.734694 23.510204-52.244898 52.244898-52.244898h10.448979c28.734694 0 52.244898 23.510204 52.244898 52.244898v50.155102c0 28.734694-23.510204 52.244898-52.244898 52.244898h-10.448979zM835.918367 264.881633h-10.448979c-51.722449 0-94.040816 42.318367-94.040817 94.040816v50.155102c0 51.722449 42.318367 94.040816 94.040817 94.040816h10.448979c51.722449 0 94.040816-42.318367 94.040817-94.040816v-50.155102c0-51.722449-42.318367-94.040816-94.040817-94.040816z m-10.448979 196.440816c-28.734694 0-52.244898-23.510204-52.244898-52.244898v-50.155102c0-28.734694 23.510204-52.244898 52.244898-52.244898h10.448979c28.734694 0 52.244898 23.510204 52.244898 52.244898v50.155102c0 28.734694-23.510204 52.244898-52.244898 52.244898h-10.448979zM512-33.959184c-40.228571 0-73.142857 32.914286-73.142857 73.142857s32.914286 73.142857 73.142857 73.142858 73.142857-32.914286 73.142857-73.142858-32.914286-73.142857-73.142857-73.142857z m0 104.489796c-17.240816 0-31.346939-14.106122-31.346939-31.346939s14.106122-31.346939 31.346939-31.346938 31.346939 14.106122 31.346939 31.346938-14.106122 31.346939-31.346939 31.346939z"  horiz-adv-x="1024" />

    
    <glyph glyph-name="weibo1" unicode="&#59090;" d="M640.98304 390.69696c21.9136-4.38272 90.76736-36.29056 52.87936-116.92032-37.888-80.4864-162.87744-119.66464-255.44704-112.4352-88.02304 6.94272-201.17504 36.18816-212.86912 142.68416 0 0-6.20544 48.2304 40.5504 110.65344 0 0 67.29728 93.92128 145.6128 120.7296 78.4384 26.68544 87.57248-18.47296 87.57248-45.13792-4.17792-22.6304-11.9808-35.96288 17.44896-26.8288 0 0 77.08672 35.77856 108.81024 4.05504 25.6-25.6 4.23936-60.8256 4.23936-60.8256s-10.62912-11.75552 11.20256-15.9744z m-195.70688-199.31136c91.9552 4.1984 166.42048 61.76768 166.42048 123.0848 0 61.29664-74.46528 99.20512-166.42048 94.96576-91.9552-4.23936-166.25664-53.49376-166.25664-114.8928 0-61.3376 74.30144-107.43808 166.25664-103.15776z m-18.37056 177.60256c92.61056 10.73152 109.11744-77.68064 80.97792-114.03264-28.16-36.352-83.8656-54.0672-137.95328-24.7808-25.74336 13.96736-24.7808 41.39008-24.7808 41.39008s-10.67008 86.60992 81.75616 97.42336z m-23.32672-121.5488c17.2032 1.96608 31.21152 15.2576 31.21152 29.63456 0 14.4384-12.9024 25.86624-32.74752 23.9616-17.26464-1.78176-29.61408-16.83456-29.61408-31.232 0-14.4384 13.9264-24.39168 31.15008-22.36416z m54.51776 46.40768c5.7344 4.5056 7.94624 12.3904 4.83328 17.6128-3.072 5.12-10.21952 6.59456-17.05984 1.49504-5.89824-4.3008-7.12704-12.4928-3.8912-17.6128 3.072-5.24288 10.26048-5.85728 16.11776-1.49504z m227.92192 134.3488a15.1552 15.1552 0 0 0-15.2576 15.11424s14.97088 67.85024-52.87936 52.87936a15.07328 15.07328 0 0 0-15.11424 15.09376c0 8.47872 6.71744 15.27808 15.11424 15.27808 0 0 94.47424 17.44896 83.18976-84.04992 0-0.6144-0.08192-1.08544-0.2048-1.6384a15.03232 15.03232 0 0 0-14.848-12.6976z m-11.01824 177.19296c58.44992-13.63968 138.69056-70.144 102.6048-190.40256h-0.14336c-2.51904-17.2032-11.03872-18.55488-21.1968-18.55488-12.14464 0-21.93408 7.63904-21.93408 19.80416 0 10.52672 4.36224 21.23776 4.36224 21.23776 1.26976 4.42368 11.53024 31.98976-6.77888 73.17504-33.62816 56.44288-101.2736 57.26208-109.2608 54.02624-8.06912-3.13344-19.968-4.73088-19.968-4.73088a22.05696 22.05696 0 0 0-22.03648 22.03648c0 10.15808 6.77888 18.7392 16.0768 21.38112 0 0 0.2048 0.32768 0.512 0.4096 0.67584 0.12288 1.37216 0.79872 2.08896 0.86016 9.4208 1.80224 43.008 8.3968 75.6736 0.75776z"  horiz-adv-x="1024" />

    
    <glyph glyph-name="qrcode" unicode="&#58626;" d="M742.8 774.5c-2.3-0.3-4.7-0.1-7-0.1-38 0-76 0.1-114-0.1-11 0-21.9-1.4-32.4-5.1-18.6-6.5-29.8-19.5-34.4-38.4-1.7-7-2.4-14.1-2.4-21.3 0-67.2-0.1-134.3 0.1-201.5 0-13.8 0.9-27.6 6.2-40.8 6.9-17.1 19.7-27.2 37.3-31.7 6.3-1.6 12.8-2.2 19.3-2.2h218c8.3 0 16.6 0.7 24.8 2.3 24.4 4.5 40.4 20.7 44.9 45 0.4 2.2-0.4 5.2 2.9 6.2v232c-0.4 0.4-0.5 0.9-0.5 1.5-1.5 4.8-1.7 9.8-3.3 14.7-7.1 21-21.7 33.4-42.8 38.8-6.4 1.6-12.8 2.4-19.5 2.1-1.3-0.1-3-1-3.9 0.9h-89c-0.4-2.6-2.7-2.1-4.3-2.3z m98.7-40.7c4 0 8.1-0.9 11.9-2.1 6.9-2.2 10.7-7.6 10.7-15.1 0-74.8 0.1-149.6-0.1-224.4 0-11.2-8.6-18-21.1-18.1-38.2-0.3-76.3-0.1-114.5-0.1h-113c-4.5 0-8.6 1.3-12.7 2.7-8.5 3.1-9.6 10.5-9.7 17.9-0.2 37.5-0.1 75-0.1 112.5V712.6c0 6.5 1.5 12.5 6.9 17 4.6 3.8 10.3 4.3 15.6 4.3 75.4 0.1 150.8 0 226.1-0.1zM742 776c-39.5-0.1-79-0.1-118.4-0.1-9.4 0-18.6-1-27.7-3.1-11.6-2.7-22.1-7.7-30-16.7-10.6-12.1-14.8-26.9-14.8-42.6-0.2-69.6-0.2-139.3 0-208.9 0-9.1 0.7-18.3 2.8-27.2 2.8-11.7 7.6-22.5 16.7-30.5 11.7-10.3 25.9-15 41.5-15 74.1-0.1 148.3-0.1 222.4 0 9.3 0 18.7 0.5 27.7 3 19 5.4 33.6 15.9 40 35.8 1.7 5.3 1.8 10.9 3.8 16.1-3.2-1-2.5-4-2.9-6.2-4.5-24.4-20.5-40.5-44.9-45-8.2-1.5-16.5-2.3-24.8-2.3h-218c-6.5 0-13 0.6-19.3 2.2-17.5 4.5-30.4 14.6-37.3 31.7-5.3 13.1-6.2 27-6.2 40.8-0.2 67.2-0.1 134.3-0.1 201.5 0 7.2 0.7 14.3 2.4 21.3 4.6 18.9 15.8 31.9 34.4 38.4 10.5 3.7 21.4 5 32.4 5.1 38 0.2 76 0.1 114 0.1 2.3 0 4.7-0.2 7 0.1 1.7 0.2 3.9-0.2 4.2 2.4-1.2-2.1-3.2-0.9-4.9-0.9zM120.6 485.7c2-12.5 5.5-24.4 14.3-34 11.5-12.7 26.5-18 43-18.1 75.1-0.3 150.2-0.3 225.4 0 9.4 0 18.9 1 28.1 3.9 24.5 7.7 39.1 27.3 39.1 53.1 0 74 0 147.9 0.1 221.9 0 6.4-0.8 12.6-2.4 18.8-5.8 22.4-24.5 39.1-47.5 42.3-4.1 0.6-8.2 1.1-12.4 1.1-2 0-4.5-0.6-5.2 2.4h-89c-1.3-2.1-3.3-0.9-4.9-0.9-41.1-0.1-82.2 0.2-123.3-0.2-14.8-0.1-29.2-2.6-42.2-10.7-12.5-7.8-19.8-19.1-23.7-33-0.8-2.7-0.2-5.7-1.9-8.2v-233c2.9-0.9 2.2-3.5 2.5-5.4z m39.5 231c0 8.1 6.2 14.6 14.5 16.3 4.4 0.9 8.8 1 13.2 1h219c4.3 0 8.4-0.8 12.4-2 7.5-2.4 10.8-6.9 10.8-14.6v-225.5c0-8.2-3.8-13.3-11.6-15.9-4-1.3-8.1-2.1-12.4-2-37.2 0.1-74.3 0.1-111.5 0.1-37.7 0-75.3-0.1-113 0.1-6.3 0-12.6 0.9-17.3 6.1-2.7 3-4.1 6.3-4.1 10.1-0.1 75.3-0.1 150.8 0 226.3zM119 488.5c0.1-8.9 2.6-17.3 6.4-25.1 10.4-21.4 28.9-31 51.6-31.2 74.5-0.6 149-0.2 223.4-0.2 9.3 0 18.6 0.8 27.7 3 27.1 6.7 43.6 26.4 43.8 54.4 0.5 73.8 0.2 147.6 0.2 221.4 0 4.9 0 9.8-0.9 14.7-3 16.2-10.7 29.4-24.2 39-11 7.8-23.5 11-36.9 11.4-2.3 0.1-4.9-1.2-6.9 0.9 0.7-3 3.3-2.4 5.2-2.4 4.2 0 8.3-0.6 12.4-1.1 23-3.2 41.7-19.9 47.5-42.3 1.6-6.2 2.4-12.4 2.4-18.8-0.1-74 0-147.9-0.1-221.9 0-25.7-14.6-45.3-39.1-53.1-9.2-2.9-18.7-3.9-28.1-3.9-75.1-0.2-150.2-0.3-225.4 0-16.5 0.1-31.4 5.4-43 18.1-8.8 9.7-12.3 21.5-14.3 34-0.3 1.9 0.4 4.6-2.6 5.2 1.3-0.1 0.9-1.3 0.9-2.1zM191.8 13.299999999999955c2.1 0.3 4.3 0.1 6.5 0.1h206c8.4 0 16.6 1 24.7 3.1 25.5 6.6 41.4 26.9 41.5 53.2 0.1 25.3 0 50.7 0 76v148c0 32.3-21.4 56.2-53.6 59.7-11.4 1.2-22.9 1.7-34.4 2-34.5 0.7-69-0.5-103.4-1.3-33-0.8-66-0.2-98.9-0.7-11.5-0.2-22.6-2.7-32.7-8.1-13.6-7.2-21.9-18.5-25.7-33.4-0.7-2.8-0.1-6.5-3.7-8v-234c2-5.5 2.2-11.4 3.9-17.1 5.9-20.7 19.4-33.3 39.8-38.9 6.5-1.8 13.2-2.3 19.9-2.1 1.4 0 3.3 1.1 4.4-0.9h2c0.2 2.3 2.1 2.2 3.7 2.4z m-11.4 40.6c-12.2 0-20.7 6.6-20.6 20.5 0.4 73.3 0.2 146.6 0.1 220 0 11.8 7 18.1 18.3 18.5 74.6 2.4 149.1 0.5 223.7 0.8 6.4 0 13.4 0.4 19.6-3 5.4-3 8.5-7.2 8.5-13.7-0.1-37.5 0-75 0-112.5 0-37.2-0.2-74.3 0.1-111.5 0.1-12.1-7.8-17.6-18.7-19.3-8.6-1.3-17 0-25.5 0.1-68.5 0.2-137 0.1-205.5 0.1zM193.5 11.799999999999955c67.8 0.1 135.7 0.1 203.5 0 9.4 0 18.7 0.2 28 2.1 12.5 2.5 23.8 7.8 32.5 17.1 9.7 10.4 14.5 23.4 14.5 37.6 0.2 74.3 0.1 148.7 0.1 223 0 6.3-0.4 12.4-2 18.5-5.3 19.9-17.3 33.7-36.7 41.3-13.3 5.2-27.3 5-41 5.3-23.1 0.5-46.2 0.9-69.3-0.5-19-1.2-38.2-0.3-57.3-1-27.6-0.9-55.3-0.3-83-0.2-6.4 0-12.7-0.6-19-2-18.4-4.2-32.5-13.8-40.6-31.3-2.6-5.7-2.8-12-5.2-17.7 3.7 1.5 3 5.2 3.7 8 3.8 14.9 12.2 26.2 25.7 33.4 10.2 5.4 21.2 7.9 32.7 8.1 33 0.5 65.9-0.1 98.9 0.7 34.5 0.8 68.9 2 103.4 1.3 11.5-0.2 23-0.7 34.4-2 32.2-3.5 53.5-27.4 53.6-59.7v-148c0-25.3 0.1-50.7 0-76-0.2-26.4-16-46.6-41.5-53.2-8.1-2.1-16.3-3.1-24.7-3.1h-206c-2.2 0-4.3 0.1-6.5-0.1-1.6-0.2-3.5 0-3.7-2.4 1.5 1.9 3.7 0.8 5.5 0.8zM143.6 765.1c13 8 27.4 10.6 42.2 10.7 41.1 0.4 82.2 0.1 123.3 0.2 1.6 0 3.6-1.2 4.9 0.9-1.7-1-3.6-0.5-5.4-0.5-44.8-0.3-89.6 0.8-134.4-0.6-18.9-0.6-34.9-8.1-46.5-23.6-6.3-8.4-9.1-18-9.7-28.3 1.8 2.4 1.2 5.4 1.9 8.2 4 13.9 11.2 25.2 23.7 33zM840 776c6.6 0.3 13.1-0.5 19.5-2.1 21-5.4 35.7-17.8 42.8-38.8 1.6-4.8 1.8-9.9 3.3-14.7v0.4c0.4 28.1-24.4 53.2-52.7 55.3-5.6 0.4-11.2-0.5-16.8 0.9 0.8-2.1 2.6-1.1 3.9-1zM181.6 11.799999999999955c-6.7-0.2-13.4 0.3-19.9 2.1-20.4 5.6-33.9 18.2-39.8 38.9-1.6 5.7-1.8 11.6-3.9 17.1 1.1-5.3 0.8-10.8 2.1-16.1 5.5-22.8 25.5-40.6 48.6-42 5.8-0.4 11.6 0.6 17.3-0.8-1.1 1.9-3 0.9-4.4 0.8zM608.4 228.79999999999995c-12.3-0.2-20.4-8.3-20.4-20V37c0-12.3 8.5-20.1 20.8-19.9 12.9 0.2 21 6.9 21.1 19.7 0.2 57.4 0.1 114.9 0 172.3 0 12-8.4 19.9-21.5 19.7zM861.4 228.60000000000002c-9.9 1.8-23.3-4.9-23.3-18.2-0.2-29.2 0-58.3 0-87.5v-87c0-1.6-0.1-3.4 0.4-4.9 3.3-9.4 14.4-16.2 23.5-14 11.4 2.7 17.9 7.2 18 21.4 0.2 55.5 0.1 111 0.1 166.5-0.1 14.4-4.6 21.1-18.7 23.7zM768.7 168.70000000000005c-2.6 9.4-13 16.8-22.1 15.1-12.4-2.4-19.4-6.6-19.5-20.9-0.3-41.1-0.1-82.3-0.1-123.4 0-13.8 5.7-20 17.5-22.2 11.1-2.1 24.4 4.5 24.5 19.1v63.5 64.5c0 1.3 0 2.9-0.3 4.3zM741 351.20000000000005c-8.7-1.9-14-10.2-14-19.8V243c0-13.1 4-21 18.1-23.7 10.3-1.9 24 5.2 23.9 18.5-0.1 15.8 0 31.6 0 47.5 0 15.3-0.2 30.6 0 46 0.3 19-14.6 22.8-28 19.9zM622 348.6c-4.9 3.4-10.1 3.3-15.4 3.3-10.5 0-18.5-7.9-18.5-18.3v-26c0-9-0.1-18 0-27 0.1-4.6 1.3-8.7 4.9-12.3 5.2-5.2 11.2-6.7 18.2-6.5 9.9 0.3 18.8 8.9 18.8 18.7 0.1 17.7 0.2 35.3-0.1 53 0 6.1-2.4 11.3-7.9 15.1zM878.3 340.1c-2.2 6.2-9.8 11.8-17.9 12-14.3 0.5-23.6-7.9-22.5-22.8 0.5-7 0.1-14 0.1-21v-25c0-1.5 0-3 0.4-4.4 3.2-10.3 12.9-15.5 23.9-14 11 1.6 17.4 8.4 17.6 19.7 0.3 15.8 0.1 31.7 0.1 47.5 0 2.9-0.8 5.5-1.7 8zM352 638.2c-1.9 7.3-7.9 12.7-15.4 13.7-1.3 0.2-2.7 0.4-4 0.4-0.6 0-1.5-0.2-1.7 0.8h-28.8c-0.4-0.7-1.1-0.3-1.6-0.3-13.3 0-26.6 0.1-39.9-0.1-4.8 0-9.5-0.9-13.7-3.5-4.1-2.5-6.4-6.2-7.7-10.7-0.2-0.9 0-1.9-0.6-2.6v-75.5c1-0.2 0.7-1.1 0.8-1.7 0.7-4.1 1.8-7.9 4.6-11 3.7-4.1 8.6-5.8 13.9-5.9 24.3-0.1 48.7-0.1 73 0 3.1 0 6.1 0.3 9.1 1.3 7.9 2.5 12.7 8.9 12.7 17.2v71.9c0.1 2-0.2 4-0.7 6zM785.5 645.9c-1.9 7.3-7.9 12.7-15.4 13.7-1.3 0.2-2.7 0.4-4 0.4-0.6 0-1.5-0.2-1.7 0.8h-28.8c-0.4-0.7-1.1-0.3-1.6-0.3-13.3 0-26.6 0.1-39.9-0.1-4.8 0-9.5-0.9-13.7-3.5-4.1-2.5-6.4-6.2-7.7-10.7-0.2-0.9 0-1.9-0.6-2.6v-75.5c1-0.2 0.7-1.1 0.8-1.7 0.7-4.1 1.8-7.9 4.6-11 3.7-4.1 8.6-5.8 13.9-5.9 24.3-0.1 48.7-0.1 73 0 3.1 0 6.1 0.3 9.1 1.3 7.9 2.5 12.7 8.9 12.7 17.2v71.9c0.2 2-0.2 4.1-0.7 6zM351.4 219.39999999999998c-1.9 7.3-7.9 12.7-15.4 13.7-1.3 0.2-2.7 0.4-4 0.4-0.6 0-1.5-0.2-1.7 0.8h-28.8c-0.4-0.7-1.1-0.3-1.6-0.3-13.3 0-26.6 0.1-39.9-0.1-4.8 0-9.5-0.9-13.7-3.5-4.1-2.5-6.4-6.2-7.7-10.7-0.2-0.9 0-1.9-0.6-2.6v-75.5c1-0.2 0.7-1.1 0.8-1.7 0.7-4.1 1.8-7.9 4.6-11 3.7-4.1 8.6-5.8 13.9-5.9 24.3-0.1 48.7-0.1 73 0 3.1 0 6.1 0.3 9.1 1.3 7.9 2.5 12.7 8.9 12.7 17.2v71.9c0.1 2-0.2 4-0.7 6z"  horiz-adv-x="1024" />

    
    <glyph glyph-name="dui" unicode="&#58894;" d="M457.08288 342.97856l-74.24 74.25024a52.49024 52.49024 0 0 1-74.1376 0 52.44928 52.44928 0 0 1 0-74.24l74.24-74.25024 37.12-37.13024a52.4288 52.4288 0 0 1 74.24 0l222.6176 222.63808a52.44928 52.44928 0 0 1 0 74.25024 52.4288 52.4288 0 0 1-74.24 0L457.07264 342.97856zM512-35.84C280.18688-35.84 92.16 152.10496 92.16 384.0512 92.16 615.9872 280.18688 803.84 512 803.84s419.84-187.94496 419.84-419.7888S743.81312-35.84 512-35.84z"  horiz-adv-x="1024" />

    
    <glyph glyph-name="zuoyoujiantou" unicode="&#59017;" d="M0 384a512 512 0 1 1 1024 0A512 512 0 1 1 0 384zM435.2 115.866a25.6 25.6 0 0 0-18.125 43.724l218.368 218.368-218.368 218.368a25.6 25.6 0 0 0 36.199 36.199l236.492-236.442a25.6 25.6 0 0 0 0-36.25L453.274 123.393a25.6 25.6 0 0 0-18.074-7.526z"  horiz-adv-x="1024" />

    
    <glyph glyph-name="dui1" unicode="&#58994;" d="M512 896C228.949333 896 0 667.050667 0 384s228.949333-512 512-512 512 228.949333 512 512S794.325333 896 512 896z m0-950.869333C269.909333-54.869333 73.130667 141.909333 73.130667 384 73.130667 626.090667 269.909333 822.869333 512 822.869333c242.090667 0 438.869333-196.778667 438.869333-438.869333 0-242.090667-196.778667-438.869333-438.869333-438.869333z m-59.733333 220.330666a22.528 22.528 0 0 0-32.128 0l-7.125334 7.253334-7.594666 7.637333-33.408 33.706667c-0.085333 0.128 0 0.298667-0.128 0.384L218.88 369.962667a22.997333 22.997333 0 0 0 0 32.341333l48.085333 48.554667a22.613333 22.613333 0 0 0 32.170667 0l137.173333-139.52 288.554667 291.2a22.528 22.528 0 0 0 32.085333 0l48.085334-48.554667a22.954667 22.954667 0 0 0 0-32.384l-352.853334-356.138667z"  horiz-adv-x="1024" />

    
    <glyph glyph-name="toutiao1" unicode="&#59078;" d="M280.269 736.87h462.745a120.525 120.525 0 0 0 121.754-121.65v-462.234a120.525 120.525 0 0 0-121.754-121.652H280.27a120.525 120.525 0 0 0-121.805 121.652V615.219A120.525 120.525 0 0 0 280.269 736.87zM280.269 732.006c-63.335 0-116.941-53.504-116.941-116.736v-462.284c0-63.284 53.606-116.736 116.94-116.736h462.746c63.335 0 116.89 53.504 116.89 116.736V615.219c0 63.283-53.555 116.787-116.89 116.787H280.27zM743.014 26.47H280.27c-68.199 0-126.669 58.368-126.669 126.516V615.219c0 68.096 58.47 126.515 126.669 126.515h462.745c68.199 0 126.67-58.368 126.67-126.464v-462.284c0-68.096-58.471-126.464-126.67-126.464zM275.405 605.491c0 9.728 4.864 14.592 14.592 14.592 9.728 0 14.592-4.864 14.592-14.592 0-9.728-4.864-14.592-14.592-14.592-9.728 0-14.592 4.864-14.592 14.592z m24.32-68.096l48.742 68.096 19.456-24.32 24.371 43.776 43.828-77.824V629.76H255.898v-116.736h180.224v24.32H299.725z m336.179 72.909h131.533V629.76H635.853v-19.456z m0-38.912h131.533v19.456H635.853v-19.456z m0 77.824h131.533v19.456H635.853v-19.456zM455.68 610.304h155.853V629.76H455.578v-19.456z m0-38.912h155.853v19.456H455.578v-19.456z m0 77.824h155.853v19.456H455.578v-19.456zM255.949 138.342h355.584v19.456H255.898v-19.456z m0-38.912h355.584v19.456H255.898v-19.456z m0 77.824h355.584V196.71H255.898v-19.456z m379.904-38.912h131.584v19.456H635.853v-19.456z m0-38.912h131.584v19.456H635.853v-19.456z m0 77.824h131.584V196.71H635.853v-19.456zM265.677 649.011h4.864v5.12h-9.728v-5.12h4.864z m0 9.728s4.864 0 4.864 5.12h-9.728v-5.12h4.864z m0 9.984h4.864s0-4.864 4.864-4.864c0-4.864 0-4.864-4.864-4.864 0 0 0-4.864 4.864-4.864v-4.864c0-4.864-4.864-4.864-4.864-4.864h-14.592v24.32h9.728z m19.456-29.184h-9.728 4.915v4.864l-4.864 19.456h4.864l4.864-14.592 4.864 14.592h4.864l-9.728-24.371zM309.453 658.483v-10.24h-4.813v-20.48h4.864v-10.24h-9.728v30.72h-4.864v10.24h4.864l4.864 10.24v-10.24h4.864z m29.235-30.72h4.915s4.864 0 4.864 10.24v10.24l-4.864 10.24h-9.728v-30.72h4.813z m4.864 40.96c4.864 0 4.864 0 4.864-10.24h4.915v-30.72h-4.915v-10.24H328.96v51.2h14.592z m63.334-40.96c-4.864 0-4.864 10.24-4.864 10.24s0 10.24 4.864 10.24v-10.24h4.864c0 10.24 0 20.48-4.864 20.48-9.728 0-9.728-20.48-9.728-20.48s0-20.48 9.728-20.48c4.864 0 4.864 10.24 4.864 10.24h-4.864z m19.456 20.48l4.916-10.24h-9.728s0 10.24 4.864 10.24z m4.916-10.24h4.864s0 20.48-9.728 20.48-9.728-20.48-9.728-20.48 0-20.48 9.728-20.48c4.864 0 4.864 10.24 9.728 10.24h-9.728c-4.864 0-4.864 0-4.864 10.24h9.728zM319.232 651.11l4.864-12.8h-9.728s0 12.8 4.864 12.8z m4.864-12.8h4.864s0 25.6-9.728 25.6-9.728-25.6-9.728-25.6 0-25.6 9.728-25.6c4.864 0 4.864 12.8 9.728 12.8h-9.728c-4.864 0-4.864 0-4.864 12.8h9.728z m38.912-12.8c-4.813 0-4.813 12.8-4.813 12.8s0 12.8 4.864 12.8 4.864-12.8 4.864-12.8 0-12.8-4.864-12.8z m9.78 38.4h-9.729c-9.728 0-9.728-25.6-9.728-25.6s0-25.6 9.728-25.6h9.728v51.2z m19.455-12.8c0 12.8-4.813 12.8-4.813 12.8-4.915 0-4.915-12.8-4.915-12.8l-4.864 12.8v-51.2h4.864v25.6c0 12.8 4.915 12.8 4.915 12.8v-38.4h4.864v38.4zM153.6 586.035v-432.998s0-4.864 4.864-9.728l711.168 38.912v433.1s0 4.865-4.864 9.729L153.6 586.086zM791.706 337.92v34.048l-107.162-4.864v14.592h-48.691v-19.456l-107.162-4.864v-34.1l107.162 4.865v-72.96l48.691 4.864v72.96zM528.691 401.152v-34.048h34.1l97.382 48.64 92.57-34.048h38.963v34.048h-24.32L704 435.2l82.79 43.776v58.368l-48.69-4.813-121.806-4.864-38.963 19.456-53.555-82.739 43.827-14.592 29.184 43.776 141.312 4.864v-4.864l-77.977-38.912-63.284 24.32-19.507-34.048 34.1-14.592-58.471-29.184h-24.32z m233.78-73.011l-48.692-4.864 34.1-63.232 53.606 4.864-39.015 63.232z m-233.78-77.824h48.691l34.1 68.096-48.692-4.864-34.099-63.232z m-121.805 72.96l38.964-77.824h58.47l-43.827 82.688-53.607-4.864z m-53.555 58.368L309.453 435.2l-58.42-4.864 43.828-48.64h58.47z m0 68.147l-43.878 48.64h-58.42l43.828-53.504 58.47 4.864zM402.022 333.005l92.57 4.915v34.1l-63.334-4.865V517.94l-48.743-4.864v-145.971l-150.989-9.728v-34.1l102.298 4.865-43.827-58.368-58.47-4.864v-34.048l97.433 4.864z"  horiz-adv-x="1024" />

    
    <glyph glyph-name="zuoyoujiantou1" unicode="&#58949;" d="M448 522.090667v-276.245334c0-9.962667-12.821333-14.954667-20.330667-7.893333l-146.858666 138.090667a10.730667 10.730667 0 0 0 0 15.850666l146.858666 138.112c7.509333 7.04 20.330667 2.048 20.330667-7.914666z m128-276.245334V522.090667c0 9.301333 11.178667 14.293333 18.773333 9.173333l1.557334-1.28 146.858666-138.090667a10.709333 10.709333 0 0 0 1.365334-14.293333l-1.365334-1.557333-146.858666-138.112c-6.997333-6.570667-18.645333-2.666667-20.16 5.994666l-0.170667 1.92V522.090667v-276.245334z"  horiz-adv-x="1024" />

    
    <glyph glyph-name="huizhang" unicode="&#58890;" d="M458.505926-127.997357a10.834553 10.834553 0 0 0-7.630431 2.873799l-59.12759 56.154693-81.02792-0.957933a10.33907 10.33907 0 0 0-10.504231 7.630432l-28.605861 75.313354-72.472588 35.278361a13.212869 13.212869 0 0 0-6.606434 11.429132l5.714566 81.02792-50.539225 62.926289a11.429132 11.429132 0 0 0-0.957933 13.212869l40.992927 69.598788-19.059564 78.187153a12.420097 12.420097 0 0 0 4.756633 12.387065l65.800088 44.824659 18.101631 79.277214a10.140877 10.140877 0 0 0 9.546298 8.588365l61.010423 8.588365L162.009143 879.682107A10.239974 10.239974 0 0 0 162.967076 890.186338 12.651322 12.651322 0 0 0 172.513374 895.900903h248.831358a11.726421 11.726421 0 0 0 10.504231-6.606434l79.277215-167.803438 80.103019 167.803438a11.726421 11.726421 0 0 0 10.471199 6.606434h248.86439a11.957647 11.957647 0 0 0 10.471198-16.218796L707.370316 543.216394h5.714566a10.33907 10.33907 0 0 0 10.471199-7.630432l28.605862-75.313354 72.472587-35.27836a13.212869 13.212869 0 0 0 6.606435-11.429132l-5.714566-81.02792 50.539224-62.926289a11.429132 11.429132 0 0 0 0.957933-13.212869L836.03063 186.79925l18.10163-78.187154a12.420097 12.420097 0 0 0-4.756633-12.387064l-65.800088-44.824659-18.101631-79.277215a10.140877 10.140877 0 0 0-9.546297-8.588365l-81.02792-10.50423-49.54826-63.884223a11.726421 11.726421 0 0 0-9.546298-4.756633 7.201014 7.201014 0 0 0-3.798699 0.957933l-78.187154 24.77413-72.472587-35.278361a3.03896 3.03896 0 0 0-2.873799-2.873799z m-62.926289 81.985853a10.834553 10.834553 0 0 0 7.630432-2.8738l56.154694-53.379991 69.598788 34.320428a8.588365 8.588365 0 0 0 4.756633 0.957933 7.201014 7.201014 0 0 0 3.7987-0.957933l75.313354-23.849229 47.665425 61.968356a13.212869 13.212869 0 0 0 7.630432 4.756633l77.22922 10.504231 17.17673 76.271287c0.957933 2.873799 1.915866 5.714566 4.756633 6.606435l62.926289 42.941824-17.17673 75.313354a13.477127 13.477127 0 0 0 0.957933 8.588365l39.077061 66.724989-47.665426 60.052491a10.834553 10.834553 0 0 0-2.873799 7.630431l5.714566 78.187154-69.433627 34.386491a11.131842 11.131842 0 0 0-5.714566 5.714566l-27.647929 72.472588-77.22922-0.957933a10.834553 10.834553 0 0 0-7.630432 2.873799l-56.154693 53.379991-69.697885-34.386492a8.588365 8.588365 0 0 0-4.756633-0.957933 7.201014 7.201014 0 0 0-3.7987 0.957933l-76.271287 23.849229-47.665425-61.968357a13.212869 13.212869 0 0 0-7.630432-4.756632l-77.22922-9.546298-17.17673-76.271287c-0.957933-2.873799-1.915866-5.714566-4.756633-6.606435l-62.926289-42.941825 17.17673-75.313354a13.477127 13.477127 0 0 0-0.957933-8.588365l-39.077061-66.724989 48.623359-60.05249a10.834553 10.834553 0 0 0 2.873799-7.630432l-5.714566-78.187153 69.598788-34.320427a11.131842 11.131842 0 0 0 5.714566-5.714566l27.647928-72.472587zM349.830078 524.156831L396.53757 585.167254a11.726421 11.726421 0 0 0 9.546298 4.756633 7.201014 7.201014 0 0 0 3.7987-0.957933l64.842155-20.97543L330.770514 873.108704H190.615005l159.215073-348.951873z m282.226884 18.10163l49.54826 0.957933L832.264962 873.108704h-59.127589l-148.644778-324.177744 7.630432-6.606434z m-62.926289 59.12759c1.915866-0.957933 2.873799-0.957933 3.7987-2.873799l34.320428-33.362495L748.363243 873.108704h-139.197576l-84.859652-178.373733 44.824658-93.448017z m-69.598788-30.521728l47.665425 23.849229L414.738297 873.108704h-59.127589l143.954209-302.244381zM511.885918-25.432461c-144.218467 0-262.737903 104.315602-262.737903 233.174108s117.561503 233.174108 262.737903 233.174108 262.737903-104.315602 262.737902-233.174108-118.519436-233.174108-262.737902-233.174108z m0 444.414853c-131.368951 0-239.053835-94.670207-239.053835-211.405906s106.693918-212.132614 239.053835-212.132614 239.053835 94.670207 239.053834 212.132614-107.651851 211.405906-239.053834 211.405906zM512.018046 77.1985a6.606435 6.606435 0 0 0-4.393279 0.891869l-2.642573 0.891868c-103.423733 39.440414-115.612605 93.778339-115.612605 130.609212v130.609211a10.140877 10.140877 0 0 0 10.504231 10.504231h17.540083a114.225254 114.225254 0 0 1 80.631534 24.542904 3.071992 3.071992 0 0 1 0.891869 1.750706l7.002821 7.00282a10.834553 10.834553 0 0 0 7.00282 3.501411 7.960754 7.960754 0 0 0 7.002821-3.501411l7.002821-7.00282a120.831688 120.831688 0 0 1 83.274107-26.425739h15.789379a10.140877 10.140877 0 0 0 10.504231-10.504231v-128.825474c0-36.830873-12.254936-91.168797-115.612605-130.609211l-4.393279-2.642574a7.894689 7.894689 0 0 0-4.492376-0.792772z m-101.673028 132.359917c0-30.686889 10.504231-76.271287 100.814192-110.459586h0.891869c92.919502 35.939004 103.423733 81.523403 103.423733 112.309387v118.321243h-5.252116a139.230608 139.230608 0 0 0-97.279749 31.545725l-1.750705-1.750705a133.714236 133.714236 0 0 0-93.778339-29.728955h-7.894689v-120.071949zM502.108395 190.069435a9.909652 9.909652 0 0 0-7.002821 2.642573l-42.941825 41.19112a10.834553 10.834553 0 0 0-3.50141 7.002821 14.13777 14.13777 0 0 0 2.642574 7.894689 11.131842 11.131842 0 0 0 7.894689 3.50141 9.909652 9.909652 0 0 0 7.002821-2.642574l35.047135-34.188298 53.479088 54.337924a10.801521 10.801521 0 0 0 7.00282 3.50141 7.960754 7.960754 0 0 0 7.002821-3.50141 10.074813 10.074813 0 0 0 0-14.89751l-61.340745-61.340745c0-2.642574-2.642574-3.50141-5.285147-3.50141z"  horiz-adv-x="1024" />

    
    <glyph glyph-name="huihuakuang" unicode="&#59006;" d="M150 347.098h164c16.568 0 30 13.432 30 30s-13.432 30-30 30H150c-16.568 0-30-13.432-30-30s13.432-30 30-30zM468 287.098H150c-16.568 0-30-13.432-30-30s13.432-30 30-30h318c16.568 0 30 13.432 30 30s-13.432 30-30 30zM954 805.098H476c-38.598 0-70-31.402-70-70v-188H70c-38.598 0-70-31.402-70-70v-318c0-38.598 31.402-70 70-70h76v-76.108c0-19.838 11.214-37.272 29.268-45.5 6.76-3.08 13.864-4.59 20.894-4.59 11.744 0 23.28 4.214 32.644 12.356l130.934 113.84H548c38.598 0 70 31.402 70 70v188h46.26l130.934-113.84c9.368-8.144 20.9-12.356 32.644-12.356 7.03 0 14.136 1.51 20.894 4.59 18.052 8.226 29.268 25.66 29.268 45.5v76.108h76c38.598 0 70 31.402 70 70v318c0 38.6-31.402 70-70 70z m10-388c0-5.514-4.486-10-10-10h-106c-16.568 0-30-13.432-30-30v-84.164l-122.838 106.802a30 30 0 0 1-19.684 7.36H476c-5.514 0-10 4.486-10 10v318c0 5.514 4.486 10 10 10h478c5.514 0 10-4.486 10-10z m-416-268h-199.478a30.004 30.004 0 0 1-19.684-7.36L206 34.936V119.1c0 16.568-13.432 30-30 30H70c-5.514 0-10 4.486-10 10v318c0 5.514 4.486 10 10 10h336v-70c0-38.598 31.402-70 70-70h82v-188a10.012 10.012 0 0 0-10-10.002zM556 605.098h164c16.568 0 30 13.432 30 30s-13.432 30-30 30h-164c-16.568 0-30-13.432-30-30s13.432-30 30-30zM874 545.098H556c-16.568 0-30-13.432-30-30s13.432-30 30-30h318c16.568 0 30 13.432 30 30s-13.432 30-30 30z"  horiz-adv-x="1024" />

    
    <glyph glyph-name="IMhuihuakuang-jianpan-anya-icon" unicode="&#59425;" d="M512 725.333c188.513 0 341.333-152.82 341.333-341.333 0-188.513-152.82-341.333-341.333-341.333-188.513 0-341.333 152.82-341.333 341.333 0 188.513 152.82 341.333 341.333 341.333z m0-42.666c-164.949 0-298.667-133.718-298.667-298.667 0-164.949 133.718-298.667 298.667-298.667 164.949 0 298.667 133.718 298.667 298.667 0 164.949-133.718 298.667-298.667 298.667z m128-369.778v-42.667H384V312.89h256z m-234.667 99.555v-42.666h-42.666v42.666h42.666z m85.334 0v-42.666H448v42.666h42.667z m85.333 0v-42.666h-42.667v42.666H576z m85.333 0v-42.666h-42.666v42.666h42.666z m-256 85.334v-42.667h-42.666v42.667h42.666z m85.334 0v-42.667H448v42.667h42.667z m85.333 0v-42.667h-42.667v42.667H576z m85.333 0v-42.667h-42.666v42.667h42.666z"  horiz-adv-x="1024" />

    
    <glyph glyph-name="dui2" unicode="&#59133;" d="M512 896C229.232 896 0 666.768 0 384c0-282.768 229.232-512 512-512 282.768 0 512 229.232 512 512C1024 666.768 794.768 896 512 896z m-102.56-720L224 358.72l32.752 48.096 152.672-110.4L768.048 592 800 567.072 409.44 176z"  horiz-adv-x="1024" />

    
    <glyph glyph-name="fangdajing" unicode="&#58892;" d="M921.3 22L738.1 205.2c51.3 62.6 82.1 142.5 82.1 229.6 0 200.1-162.8 363-363 363-200.1 0-363-162.8-363-363s162.8-363 363-363c87 0 167 30.8 229.6 82.1L870-29.3c7.1-7.1 16.4-10.6 25.7-10.6s18.6 3.5 25.7 10.6c14.1 14.2 14.1 37.2-0.1 51.3zM166.8 434.8c0 160.1 130.3 290.4 290.4 290.4s290.4-130.3 290.4-290.4-130.3-290.4-290.4-290.4-290.4 130.3-290.4 290.4z"  horiz-adv-x="1024" />

    


  </font>
</defs>
</svg>
